<svg xmlns="http://www.w3.org/2000/svg" width="1em" height="1em" viewBox="0 0 24 24"><path fill="blue" d="M12 12q-.825 0-1.412-.588Q10 10.825 10 10t.588-1.413Q11.175 8 12 8t1.413.587Q14 9.175 14 10q0 .825-.587 1.412Q12.825 12 12 12ZM6.5 9q.425 0 .713-.288Q7.5 8.425 7.5 8t-.287-.713Q6.925 7 6.5 7t-.713.287Q5.5 7.575 5.5 8t.287.712Q6.075 9 6.5 9ZM4 21v-2h3.225l.525-2.1q-2.475-.425-4.112-2.362Q2 12.6 2 10q0-2.925 2.037-4.963Q6.075 3 9 3h6q2.925 0 4.962 2.037Q22 7.075 22 10q0 2.6-1.637 4.538q-1.638 1.937-4.113 2.362l.525 2.1H20v2Zm8-7q1.65 0 2.825-1.175Q16 11.65 16 10q0-1.65-1.175-2.825Q13.65 6 12 6q-1.65 0-2.825 1.175Q8 8.35 8 10q0 1.65 1.175 2.825Q10.35 14 12 14Z"/></svg>